name rise37.2698peak67.6939fall79.5734.mot
datacolumns 19
datarows 32
range 11.00162700000000 11.05329200000000
endheader
time	ground_force1_vx	ground_force1_vy	ground_force1_vz	ground_force1_px	ground_force1_py	ground_force1_pz	ground_force2_vx	ground_force2_vy	ground_force2_vz	ground_force2_px	ground_force2_py	ground_force2_pz	ground_torque1_x	ground_torque1_y	ground_torque1_z	ground_torque2_x	ground_torque2_y	ground_torque2_z	
11.00162700000000	-34.83547100000000	822.99131100000000	56.88580300000000	0.14924200000000	0.00000000000000	0.09523900000000	-0.77157600000000	3.74630600000000	0.81287100000000	0.00000000000000	0.00000000000000	0.00000000000000	0.00000000000000	22.36895800000000	0.00000000000000	0.00000000000000	0.26486500000000	0.00000000000000	
11.00329000000000	-35.39664500000000	821.66257800000005	56.87291600000000	0.14835900000000	0.00000000000000	0.09515100000000	-1.23498400000000	7.08116200000000	1.39525900000000	0.00000000000000	0.00000000000000	0.00000000000000	0.00000000000000	22.32578100000000	0.00000000000000	0.00000000000000	0.46402700000000	0.00000000000000	
11.00497300000000	-35.97333500000000	820.21354199999996	56.83966100000000	0.14748400000000	0.00000000000000	0.09505900000000	-1.75832200000000	11.09149100000000	2.07371400000000	0.00000000000000	0.00000000000000	0.00000000000000	0.00000000000000	22.28084500000000	0.00000000000000	0.00000000000000	0.69786600000000	0.00000000000000	
11.00662500000000	-36.56561100000000	818.64200600000004	56.78555500000000	0.14661700000000	0.00000000000000	0.09496400000000	-2.32520800000000	15.72939000000000	2.83345800000000	0.00000000000000	0.00000000000000	0.00000000000000	0.00000000000000	22.23418800000000	0.00000000000000	0.00000000000000	0.96186400000000	0.00000000000000	
11.00828900000000	-37.17347800000000	816.94578700000000	56.71014800000000	0.14575900000000	0.00000000000000	0.09486600000000	-2.91517100000000	20.91654900000000	3.65442400000000	0.00000000000000	0.00000000000000	0.00000000000000	0.00000000000000	22.18584500000000	0.00000000000000	0.00000000000000	1.24969100000000	0.00000000000000	
11.00997100000000	-37.79687100000000	815.12271599999997	56.61302800000000	0.14490900000000	0.00000000000000	0.09476400000000	-3.50494600000000	26.55007900000000	4.51257000000000	0.34623700000000	0.00000000000000	-0.09003900000000	0.00000000000000	22.13584200000000	0.00000000000000	0.00000000000000	2.80047200000000	0.00000000000000	
11.01162800000000	-38.43565900000000	813.17063900000005	56.49381900000000	0.14406700000000	0.00000000000000	0.09465900000000	-4.07011200000000	32.51104100000000	5.38166400000000	0.35188900000000	0.00000000000000	-0.09032900000000	0.00000000000000	22.08420000000000	0.00000000000000	0.00000000000000	3.39127700000000	0.00000000000000	
11.01329200000000	-39.08963900000000	811.08741899999995	56.35218300000000	0.14323400000000	0.00000000000000	0.09455100000000	-4.58687200000000	38.67455100000000	6.23527700000000	0.35710600000000	0.00000000000000	-0.09060100000000	0.00000000000000	22.03093000000000	0.00000000000000	0.00000000000000	3.98673800000000	0.00000000000000	
11.01496700000000	-39.75853500000000	808.87094400000001	56.18782200000000	0.14240900000000	0.00000000000000	0.09443900000000	-5.03372500000000	44.92003900000000	7.04873800000000	0.36193400000000	0.00000000000000	-0.09085900000000	0.00000000000000	21.97603600000000	0.00000000000000	0.00000000000000	4.57075900000000	0.00000000000000	
11.01662300000000	-40.44199800000000	806.51912000000004	56.00047900000000	0.14159200000000	0.00000000000000	0.09432500000000	-5.39282600000000	51.14028400000000	7.80078400000000	0.36641200000000	0.00000000000000	-0.09110600000000	0.00000000000000	21.91951500000000	0.00000000000000	0.00000000000000	5.12892900000000	0.00000000000000	
11.01828900000000	-41.13960300000000	804.02988100000005	55.78993700000000	0.14078400000000	0.00000000000000	0.09420700000000	-5.65089500000000	57.24829600000000	8.47473900000000	0.37057200000000	0.00000000000000	-0.09134500000000	0.00000000000000	21.86135500000000	0.00000000000000	0.00000000000000	5.64940600000000	0.00000000000000	
11.01997300000000	-41.85084900000000	801.40119200000004	55.55602300000000	0.13998300000000	0.00000000000000	0.09408600000000	-5.79964100000000	63.18155500000000	9.05915800000000	0.37444000000000	0.00000000000000	-0.09157700000000	0.00000000000000	21.80153400000000	0.00000000000000	0.00000000000000	6.12346200000000	0.00000000000000	
11.02162500000000	-42.57515800000000	798.63104799999996	55.29860500000000	0.13919000000000	0.00000000000000	0.09396200000000	-5.83570700000000	68.90359100000001	9.54794400000000	0.37804200000000	0.00000000000000	-0.09180400000000	0.00000000000000	21.74002400000000	0.00000000000000	0.00000000000000	6.54569900000000	0.00000000000000	
11.02328800000000	-43.31187300000000	795.71748000000002	55.01759500000000	0.13840400000000	0.00000000000000	0.09383500000000	-5.76023800000000	74.40315500000000	9.94001100000000	0.38139500000000	0.00000000000000	-0.09202900000000	0.00000000000000	21.67678700000000	0.00000000000000	0.00000000000000	6.91394400000000	0.00000000000000	
11.02497100000000	-44.06025900000000	792.65855799999997	54.71295000000000	0.13762500000000	0.00000000000000	0.09370500000000	-5.57814500000000	79.69146400000000	10.23858500000000	0.38451800000000	0.00000000000000	-0.09225100000000	0.00000000000000	21.61177600000000	0.00000000000000	0.00000000000000	7.22890600000000	0.00000000000000	
11.02663100000000	-44.81950300000000	789.45239900000001	54.38466800000000	0.13685200000000	0.00000000000000	0.09357300000000	-5.29719300000000	84.79805800000000	10.45028500000000	0.38742600000000	0.00000000000000	-0.09247300000000	0.00000000000000	21.54493700000000	0.00000000000000	0.00000000000000	7.49364100000000	0.00000000000000	
11.02829200000000	-45.58871100000000	786.09716300000002	54.03279400000000	0.13608500000000	0.00000000000000	0.09343800000000	-4.92702000000000	89.76587900000000	10.58407400000000	0.39013100000000	0.00000000000000	-0.09269500000000	0.00000000000000	21.47620600000000	0.00000000000000	0.00000000000000	7.71291900000000	0.00000000000000	
11.02995600000000	-46.36691300000000	782.59106699999995	53.65741600000000	0.13532300000000	0.00000000000000	0.09330000000000	-4.47816300000000	94.64609799999999	10.65020500000000	0.39264500000000	0.00000000000000	-0.09291700000000	0.00000000000000	21.40551400000000	0.00000000000000	0.00000000000000	7.89256200000000	0.00000000000000	
11.03162900000000	-47.15305900000000	778.93238099999996	53.25866800000000	0.13456600000000	0.00000000000000	0.09316100000000	-3.96119700000000	99.49315400000000	10.65924900000000	0.39498000000000	0.00000000000000	-0.09314100000000	0.00000000000000	21.33278000000000	0.00000000000000	0.00000000000000	8.03879600000000	0.00000000000000	
11.03329500000000	-47.94602100000000	775.11944000000005	52.83672600000000	0.13381200000000	0.00000000000000	0.09301900000000	-3.38600600000000	104.36037700000000	10.62125600000000	0.39714300000000	0.00000000000000	-0.09336700000000	0.00000000000000	21.25791800000000	0.00000000000000	0.00000000000000	8.15769800000000	0.00000000000000	
11.03495700000000	-48.74459500000000	771.15064500000005	52.39181100000000	0.13306200000000	0.00000000000000	0.09287500000000	-2.76124500000000	109.29642100000000	10.54510600000000	0.39914400000000	0.00000000000000	-0.09359400000000	0.00000000000000	21.18083400000000	0.00000000000000	0.00000000000000	8.25473600000000	0.00000000000000	
11.03662500000000	-49.54750300000000	767.02446599999996	51.92418700000000	0.13231400000000	0.00000000000000	0.09272900000000	-2.09398700000000	114.34265499999999	10.43806300000000	0.40099000000000	0.00000000000000	-0.09382400000000	0.00000000000000	21.10142800000000	0.00000000000000	0.00000000000000	8.33444300000000	0.00000000000000	
11.03829100000000	-50.35339100000000	762.73945600000002	51.43416300000000	0.13156700000000	0.00000000000000	0.09258100000000	-1.38955300000000	119.53153200000000	10.30552500000000	0.40268900000000	0.00000000000000	-0.09405700000000	0.00000000000000	21.01959200000000	0.00000000000000	0.00000000000000	8.40022000000000	0.00000000000000	
11.03997300000000	-51.16083400000000	758.29424600000004	50.92208700000000	0.13082200000000	0.00000000000000	0.09243200000000	-0.65150900000000	124.88588700000000	10.15096000000000	0.40424700000000	0.00000000000000	-0.09429300000000	0.00000000000000	20.93521400000000	0.00000000000000	0.00000000000000	8.45426400000000	0.00000000000000	
11.04162600000000	-51.96833600000000	753.68755799999997	50.38835200000000	0.13007600000000	0.00000000000000	0.09228100000000	0.11820500000000	130.41905100000000	9.97600200000000	0.40566900000000	0.00000000000000	-0.09453100000000	0.00000000000000	20.84817400000000	0.00000000000000	0.00000000000000	8.49759400000000	0.00000000000000	
11.04328900000000	-52.77433500000000	748.91821100000004	49.83339000000000	0.12932900000000	0.00000000000000	0.09212900000000	0.91904500000000	136.13562099999999	9.78066100000000	0.40696300000000	0.00000000000000	-0.09477200000000	0.00000000000000	20.75835000000000	0.00000000000000	0.00000000000000	8.53017600000000	0.00000000000000	
11.04496900000000	-53.57720400000000	743.98512400000004	49.25767300000000	0.12858100000000	0.00000000000000	0.09197500000000	1.75156700000000	142.03270300000000	9.56362000000000	0.40813200000000	0.00000000000000	-0.09501700000000	0.00000000000000	20.66561400000000	0.00000000000000	0.00000000000000	8.55109500000000	0.00000000000000	
11.04663100000000	-54.37525400000000	738.88732500000003	48.66171200000000	0.12782900000000	0.00000000000000	0.09182100000000	2.61710100000000	148.10145499999999	9.32257700000000	0.40918300000000	0.00000000000000	-0.09526400000000	0.00000000000000	20.56983300000000	0.00000000000000	0.00000000000000	8.55877500000000	0.00000000000000	
11.04829700000000	-55.16673900000000	733.62396000000001	48.04605600000000	0.12707500000000	0.00000000000000	0.09166600000000	3.51742900000000	154.32875600000000	9.05460200000000	0.41011900000000	0.00000000000000	-0.09551400000000	0.00000000000000	20.47087300000000	0.00000000000000	0.00000000000000	8.55120600000000	0.00000000000000	
11.04995800000000	-55.94985600000000	728.19430100000000	47.41129000000000	0.12631600000000	0.00000000000000	0.09151000000000	4.45447600000000	160.69884999999999	8.75646600000000	0.41094600000000	0.00000000000000	-0.09576700000000	0.00000000000000	20.36859600000000	0.00000000000000	0.00000000000000	8.52616200000000	0.00000000000000	
11.05162800000000	-56.72275300000000	722.59775000000002	46.75803200000000	0.12555100000000	0.00000000000000	0.09135400000000	5.43005200000000	167.19485399999999	8.42495200000000	0.41166800000000	0.00000000000000	-0.09602200000000	0.00000000000000	20.26286300000000	0.00000000000000	0.00000000000000	8.48140700000000	0.00000000000000	
11.05329200000000	-57.48353400000000	716.83385699999997	46.08693700000000	0.12478000000000	0.00000000000000	0.09119800000000	6.44564600000000	173.80004700000001	8.05709400000000	0.41228900000000	0.00000000000000	-0.09628000000000	0.00000000000000	20.15353200000000	0.00000000000000	0.00000000000000	8.41485900000000	0.00000000000000	
